<svg width="109" height="109" viewBox="0 0 109 109" fill="none" xmlns="http://www.w3.org/2000/svg">
<path d="M36.8333 48.4792L48.4792 36.6979L40.8958 28.9792L34.9375 34.9375L27.3542 27.3542L33.1771 21.3958L27.0833 15.3021L15.3021 27.0833L36.8333 48.4792ZM81.25 93.0312L93.0312 81.25L86.9375 75.1562L80.9792 80.9792L73.3958 73.3958L79.2188 67.4375L71.5 59.8542L59.8542 71.5L81.25 93.0312ZM28.4375 102.917H5.41667V79.8958L29.1146 56.1979L0 27.0833L27.0833 0L56.3333 29.25L76.7812 8.66667C77.8646 7.58333 79.0833 6.77083 80.4375 6.22917C81.7917 5.6875 83.191 5.41667 84.6354 5.41667C86.0799 5.41667 87.4792 5.6875 88.8333 6.22917C90.1875 6.77083 91.4062 7.58333 92.4896 8.66667L99.6667 15.9792C100.75 17.0625 101.562 18.2812 102.104 19.6354C102.646 20.9896 102.917 22.3889 102.917 23.8333C102.917 25.2778 102.646 26.6545 102.104 27.9635C101.562 29.2726 100.75 30.4688 99.6667 31.5521L79.2188 52.1354L108.333 81.25L81.25 108.333L52.1354 79.2188L28.4375 102.917ZM16.25 92.0833H23.8333L76.9167 39.1354L69.1979 31.4167L16.25 84.5V92.0833ZM73.125 35.3438L69.1979 31.4167L76.9167 39.1354L73.125 35.3438Z" fill="#fff" class="design-icon" />
</svg>